<svg width="237" height="53" viewBox="0 0 237 53" fill="none" xmlns="http://www.w3.org/2000/svg">
<path d="M23.04 13.1356C22.9063 13.1088 22.9063 13.0553 23.04 12.975L23.3076 12.868C23.4682 12.7877 23.6823 12.6539 23.9499 12.4398C24.2175 12.2525 24.4583 12.0117 24.7259 11.7441C24.9935 11.4765 25.2076 11.1019 25.4217 10.6469C25.6357 10.192 25.7695 9.71035 25.8231 9.17516C25.9301 7.43578 24.9667 6.01752 22.933 4.94714C20.8993 3.87675 17.474 3.26128 12.7108 3.10072C6.50259 2.88664 2.70272 3.84999 1.31122 5.99076C0.642231 6.90059 0.401395 7.99774 0.588712 9.2822C0.74927 10.5667 1.36474 11.5568 2.40837 12.2525C3.21116 12.8145 4.09422 13.0821 5.05757 13.0821C5.99416 13.0821 6.77019 12.9483 7.38566 12.6272C8.00113 12.3328 8.45605 11.9849 8.7504 11.6103C8.99124 11.2892 9.12504 11.0483 9.17856 10.861C9.20532 10.6737 9.17856 10.5399 9.09828 10.4596C8.99124 10.3793 8.85744 10.2723 8.64336 10.1117C8.42929 9.97795 8.24197 9.81739 8.13493 9.63007C7.89409 9.30896 7.78705 8.90756 7.78705 8.42589C7.78705 7.97098 7.92085 7.59634 8.18845 7.32874C8.72364 6.71327 9.74051 6.3654 11.239 6.25836C10.8109 9.36248 10.3827 12.4398 9.95459 15.5172C9.84755 16.3735 9.82079 17.1763 9.84755 17.9791C9.84755 18.7819 10.0081 19.5579 10.3025 20.3072C10.5968 21.0564 10.9982 21.6987 11.4799 22.2606C11.9616 22.8226 12.6573 23.2775 13.5136 23.6521C14.3699 24.0268 15.3868 24.2676 16.5642 24.3479C18.036 24.4549 19.4275 24.3211 20.712 23.9197C21.9964 23.5451 23.1471 22.8493 24.1104 21.8325C25.0738 20.8424 25.6893 19.5847 25.9033 18.0861C26.0371 17.096 25.8498 16.1327 25.3681 15.1961C24.8865 14.2595 24.1104 13.5637 23.04 13.1356ZM20.0965 17.7918C19.9627 18.7551 19.6683 19.5044 19.2402 20.0931C18.812 20.6818 18.2233 21.0029 17.5276 21.0297C16.029 21.11 15.4136 19.9861 15.7347 17.658L16.0825 14.9552C17.3938 14.6341 18.4374 14.7144 19.1867 15.1961C19.9359 15.7045 20.257 16.5608 20.0965 17.7918ZM20.2035 9.20192C19.9627 10.9948 18.7317 11.8511 16.5375 11.7708L17.1797 6.47244C18.1966 6.44568 18.9993 6.65975 19.5881 7.11467C20.1768 7.59634 20.3641 8.29209 20.2035 9.20192ZM42.4738 17.7918C42.7147 15.7848 42.2062 14.0187 40.9753 12.5201C39.7176 11.0216 38.0317 10.192 35.8909 10.0315C33.7502 9.89767 31.877 10.4864 30.2714 11.7708C28.6658 13.0821 27.7293 14.7412 27.4884 16.7214C27.2208 18.7551 27.7293 20.4945 28.987 21.993C30.2447 23.4916 31.9573 24.3211 34.0981 24.4817C36.2656 24.6422 38.1388 24.0535 39.7176 22.7691C41.2964 21.4846 42.2062 19.8255 42.4738 17.7918ZM32.7601 17.096C32.9206 15.8651 33.215 14.875 33.6967 14.0989C34.1516 13.3497 34.767 12.975 35.5163 13.0285C36.2388 13.0821 36.7473 13.537 37.0149 14.3398C37.2824 15.1693 37.3627 16.1862 37.2022 17.4171C37.0416 18.7016 36.7205 19.6917 36.2656 20.441C35.8107 21.1902 35.222 21.5381 34.4727 21.4846C33.7234 21.4311 33.215 21.0029 32.9474 20.1734C32.6798 19.3438 32.5995 18.327 32.7601 17.096ZM57.0112 19.6382C56.9042 19.5579 56.7971 19.5579 56.6366 19.6649C55.8605 20.0931 55.0577 20.4142 54.2282 20.6015C53.3719 20.8156 52.5691 20.8691 51.7931 20.7888C51.017 20.7086 50.4016 20.3607 49.9199 19.7185C49.4382 19.0762 49.1974 18.1932 49.2509 17.0425C49.2777 15.9721 49.5185 15.0088 50.0002 14.1257C50.4818 13.2426 51.0438 12.7877 51.7396 12.7877C52.1142 12.7877 52.3818 12.975 52.5959 13.2961C52.7832 13.644 52.8367 14.0989 52.7832 14.6341C52.7564 14.7679 52.7297 14.9285 52.7029 15.1158C52.6494 15.3031 52.6494 15.4102 52.6494 15.4637C52.6494 15.5172 52.6494 15.6242 52.6761 15.7313C52.7297 15.8383 52.9437 15.9186 53.3184 16.0256C53.693 16.1327 54.0676 16.1862 54.4958 16.1862C55.2451 16.1862 55.8873 15.9186 56.476 15.3566C57.038 14.8214 57.3591 14.206 57.4394 13.5102C57.5732 12.3328 57.0915 11.3962 55.9943 10.754C54.8704 10.1117 53.5057 9.76387 51.9001 9.76387C49.8396 9.87091 48.0467 10.6202 46.5482 12.0117C45.0229 13.4032 44.1398 15.089 43.899 17.0425C43.6314 19.0762 44.1398 20.7888 45.3975 22.2071C46.6285 23.6521 48.2876 24.3479 50.3213 24.3479C51.2311 24.3479 52.0874 24.1873 52.917 23.8662C53.7465 23.5451 54.4423 23.1169 54.9775 22.6353C55.5127 22.1536 55.9676 21.6719 56.3154 21.2438C56.6366 20.8156 56.8774 20.4142 57.038 20.0663C57.1182 19.9058 57.1182 19.7452 57.0112 19.6382ZM80.165 18.541L80.6734 14.3665C80.834 13.0821 80.6199 12.0117 80.0044 11.1821C79.3889 10.3793 78.5594 9.95119 77.5425 9.95119C76.7397 9.95119 75.8834 10.2188 75.0271 10.7272C74.1708 11.2624 73.4215 12.0652 72.7793 13.1356C72.6723 12.1722 72.3512 11.3962 71.7624 10.8075C71.1737 10.2455 70.478 9.95119 69.6217 9.95119C68.8189 9.95119 68.0161 10.2188 67.1598 10.7005C66.3035 11.2089 65.5542 11.9849 64.912 13.0285C64.8317 12.0652 64.5106 11.3159 63.9219 10.7807C63.3332 10.2455 62.5839 9.95119 61.6473 9.95119C60.9248 9.95119 60.229 10.1653 59.5333 10.5667C58.8375 10.9681 58.3826 11.3962 58.1953 11.8511C58.115 12.0117 58.1418 12.1187 58.2756 12.199C58.4094 12.306 58.5699 12.4131 58.784 12.5736C58.9981 12.7342 59.1319 13.0553 59.2389 13.5905C59.346 14.1257 59.346 14.9017 59.2389 15.9186C59.0784 17.1495 58.7037 19.7987 58.0883 23.8662V23.9197L58.1686 24H63.5205H63.5472C63.574 24 63.6008 23.9732 63.6275 23.9465C63.6543 23.9197 63.681 23.893 63.681 23.8394L64.5641 16.6679C64.6711 15.8918 64.8852 15.1961 65.2599 14.6074C65.7148 13.9116 66.1697 13.6173 66.6514 13.6975C67.1598 13.8046 67.3471 14.313 67.2401 15.2496C67.1866 15.7313 67.133 16.3467 67.026 17.1495C66.8654 18.327 66.5978 20.548 66.2232 23.8662C66.1964 23.893 66.1964 23.9197 66.2232 23.9197L66.3035 24H71.6554H71.6822C71.7089 24 71.7357 23.9732 71.7624 23.9465C71.7892 23.9197 71.816 23.893 71.816 23.8394L72.4314 17.1495L72.485 16.6679C72.5652 15.8651 72.8061 15.1961 73.1807 14.6074C73.6356 13.9116 74.0905 13.6173 74.5722 13.6975C75.0806 13.8046 75.268 14.313 75.1609 15.2496L74.5187 20.441C74.3581 21.6719 74.6257 22.662 75.2947 23.4113C75.9637 24.1606 76.8468 24.5084 77.9707 24.5084C78.6664 24.5084 79.3889 24.3211 80.0847 23.9197C80.7804 23.5183 81.2086 23.0902 81.4227 22.6353C81.4762 22.5282 81.4762 22.4212 81.3959 22.3409C81.2889 22.2606 81.1551 22.1803 80.9945 22.1001C80.8072 22.0198 80.6467 21.8592 80.4861 21.6184C80.3255 21.3776 80.1917 21.0297 80.1115 20.548C80.0312 20.0663 80.0579 19.3973 80.165 18.541ZM80.4058 3.93027C80.3791 3.93027 80.2453 4.01055 80.0044 4.17111C79.7636 4.33167 79.496 4.49222 79.2284 4.62602C78.9608 4.78658 78.5326 4.92038 77.9974 5.02742C77.4623 5.13445 76.8735 5.18797 76.2313 5.16121C75.3215 5.16121 74.0905 4.9739 72.592 4.62602C71.0667 4.3049 69.702 4.11759 68.471 4.06407H67.8555C65.4739 4.14435 63.7346 4.9739 62.6107 6.57948C62.0219 7.40902 61.7811 8.10477 61.8881 8.63997C61.9149 8.85404 61.9952 8.93432 62.1557 8.8808C62.1557 8.8808 62.3431 8.77377 62.6909 8.55969C63.0388 8.34561 63.5205 8.15829 64.1627 7.97098C64.7782 7.81042 65.5007 7.70338 66.357 7.70338C67.0528 7.70338 68.2569 7.83718 69.9428 8.15829C71.6287 8.47941 72.9399 8.63997 73.8497 8.66673C76.9003 8.74701 78.9876 7.99774 80.1382 6.44568C80.7002 5.69641 80.9142 4.9739 80.7537 4.27815C80.6734 3.98379 80.5664 3.87675 80.4058 3.93027ZM97.8746 17.7918C98.1155 15.7848 97.607 14.0187 96.3761 12.5201C95.1184 11.0216 93.4325 10.192 91.2918 10.0315C89.151 9.89767 87.2778 10.4864 85.6722 11.7708C84.0667 13.0821 83.1301 14.7412 82.8892 16.7214C82.6216 18.7551 83.1301 20.4945 84.3878 21.993C85.6455 23.4916 87.3581 24.3211 89.4989 24.4817C91.6664 24.6422 93.5396 24.0535 95.1184 22.7691C96.6972 21.4846 97.607 19.8255 97.8746 17.7918ZM88.1609 17.096C88.3214 15.8651 88.6158 14.875 89.0975 14.0989C89.5524 13.3497 90.1679 12.975 90.9171 13.0285C91.6396 13.0821 92.1481 13.537 92.4157 14.3398C92.6833 15.1693 92.7635 16.1862 92.603 17.4171C92.4424 18.7016 92.1213 19.6917 91.6664 20.441C91.2115 21.1902 90.6228 21.5381 89.8735 21.4846C89.1242 21.4311 88.6158 21.0029 88.3482 20.1734C88.0806 19.3438 88.0003 18.327 88.1609 17.096ZM112.364 18.5678C112.524 17.3636 112.658 16.2665 112.792 15.2764C112.925 14.313 113.032 13.5637 113.086 13.0285C113.14 12.5201 113.193 12.092 113.247 11.7441C113.3 11.3962 113.327 11.1554 113.354 11.0483V10.9145V10.861L113.273 10.7807H107.975H107.948C107.895 10.8075 107.868 10.8343 107.841 10.861C107.814 10.8878 107.814 10.9145 107.814 10.9413L107.279 15.3834C107.199 15.9721 107.038 16.4538 106.824 16.8819C106.45 17.5242 106.048 17.7918 105.62 17.6847C105.138 17.5777 104.951 16.989 105.085 15.9453L105.299 14.3398C105.433 13.1088 105.165 12.1455 104.523 11.3962C103.854 10.6469 102.971 10.2723 101.847 10.2723C101.124 10.2723 100.429 10.4864 99.733 10.8878C99.0372 11.2892 98.6091 11.7173 98.395 12.1722C98.3415 12.306 98.3415 12.4131 98.4485 12.4666C98.5288 12.5469 98.6626 12.6272 98.8499 12.7074C99.0104 12.7877 99.1978 12.9483 99.3583 13.1891C99.5189 13.4299 99.6259 13.7778 99.7062 14.2595C99.7865 14.7412 99.7865 15.3834 99.6794 16.2397L99.5992 16.8819C99.4921 18.0861 99.7865 19.0227 100.455 19.6649C101.124 20.3072 101.981 20.6283 103.024 20.6283C104.683 20.6283 105.995 20.0663 106.958 18.9424L106.744 20.4677C106.583 21.6987 106.851 22.6888 107.52 23.438C108.162 24.1873 109.072 24.5352 110.196 24.5352C110.892 24.5352 111.587 24.3479 112.283 23.9465C112.979 23.5451 113.434 23.1169 113.648 22.662C113.701 22.555 113.675 22.4479 113.594 22.3677C113.487 22.2874 113.354 22.2071 113.193 22.1268C113.006 22.0465 112.845 21.886 112.685 21.6452C112.524 21.4043 112.39 21.0564 112.31 20.5748C112.23 20.0931 112.256 19.4241 112.364 18.5678ZM129.346 18.5946L130.309 10.6737V10.6202L130.229 10.5399H125.091C124.984 10.5399 124.931 10.5934 124.931 10.6737L124.342 15.5707H121.72L121.907 14.0187C122.041 12.7877 121.8 11.8244 121.211 11.0751C120.596 10.3258 119.739 9.95119 118.642 9.95119C117.92 9.95119 117.224 10.1653 116.528 10.5667C115.832 10.9681 115.404 11.3962 115.19 11.8511C115.11 12.0117 115.137 12.1187 115.27 12.199C115.404 12.306 115.565 12.4131 115.779 12.5736C115.993 12.7342 116.154 13.0553 116.261 13.5905C116.368 14.1257 116.368 14.9017 116.261 15.9186C116.1 17.1495 115.725 19.7987 115.11 23.8662C115.083 23.893 115.083 23.9197 115.11 23.9197L115.19 24H120.542H120.569C120.596 24 120.622 23.9732 120.649 23.9465C120.676 23.9197 120.703 23.893 120.703 23.8394L121.318 18.7016H123.941L123.727 20.4945C123.566 21.7254 123.807 22.7155 124.422 23.438C125.011 24.1606 125.867 24.5084 126.991 24.5084C127.687 24.5084 128.383 24.3211 129.078 23.9465C129.774 23.5718 130.202 23.1437 130.416 22.6888C130.47 22.555 130.443 22.4479 130.309 22.3409C130.176 22.2606 130.015 22.1268 129.801 21.9663C129.587 21.8057 129.453 21.4578 129.346 20.9226C129.239 20.3874 129.239 19.6114 129.346 18.5946ZM150.826 18.541L151.334 14.3665C151.495 13.0821 151.254 12.0117 150.639 11.1821C150.023 10.3793 149.194 9.95119 148.177 9.95119C147.24 9.95119 146.277 10.2991 145.313 10.9681C144.35 11.6638 143.547 12.7074 142.905 14.1257C142.102 13.644 141.192 13.3764 140.229 13.3764C139.533 13.3764 138.811 13.4567 138.062 13.5637L138.409 10.6202V10.5667L138.329 10.4596H133.165L133.031 10.5934C133.031 10.5934 132.897 11.6906 132.629 13.9116C132.362 16.1594 132.148 17.7382 132.041 18.7016C131.96 19.3973 131.987 20.0396 132.121 20.6818C132.255 21.324 132.522 21.9395 132.897 22.5282C133.272 23.1169 133.887 23.5986 134.717 23.9732C135.546 24.3479 136.563 24.5084 137.74 24.5084C139.533 24.5084 141.112 23.9732 142.504 22.8493C143.895 21.7522 144.671 20.3607 144.885 18.6481C145.046 17.2566 144.751 16.0791 143.975 15.0623C144.216 14.4736 144.511 14.0722 144.832 13.8313C145.153 13.5905 145.42 13.5905 145.635 13.8581C145.849 14.1257 145.902 14.5806 145.822 15.2496L145.18 20.441C145.019 21.6719 145.287 22.662 145.956 23.4113C146.625 24.1606 147.508 24.5084 148.632 24.5084C149.327 24.5084 150.023 24.3211 150.719 23.9197C151.415 23.5183 151.87 23.0902 152.084 22.6085C152.137 22.5015 152.137 22.3944 152.057 22.3141C151.95 22.2606 151.816 22.1803 151.655 22.1001C151.468 22.0198 151.308 21.8592 151.147 21.6184C150.986 21.3776 150.853 21.0297 150.772 20.548C150.692 20.0663 150.719 19.3973 150.826 18.541ZM138.249 21.4043C137.5 21.4043 137.205 20.7086 137.366 19.2635L137.767 15.9989C137.928 15.9721 138.115 15.9453 138.302 15.9453C138.891 15.9453 139.319 16.1862 139.587 16.6411C139.854 17.1228 139.935 17.7382 139.854 18.5143C139.747 19.4241 139.56 20.1199 139.346 20.6283C139.105 21.1635 138.731 21.4043 138.249 21.4043ZM167.496 18.5678C167.657 17.3368 168.058 14.6876 168.7 10.6202C168.7 10.5667 168.647 10.5131 168.593 10.4864H163.215L163.108 10.6469L162.198 18.0058C162.091 18.7284 161.85 19.3438 161.529 19.8255C161.047 20.548 160.592 20.8691 160.111 20.7888C159.575 20.7353 159.388 20.2001 159.522 19.2368L160.164 14.0454C160.325 12.8145 160.057 11.8511 159.388 11.1019C158.719 10.3526 157.836 9.97795 156.712 9.97795C155.99 9.97795 155.294 10.192 154.598 10.5934C153.902 10.9948 153.447 11.423 153.233 11.8779C153.18 12.0117 153.18 12.1187 153.287 12.1722C153.394 12.2525 153.528 12.3328 153.688 12.4131C153.849 12.4934 154.036 12.6539 154.197 12.8947C154.357 13.1356 154.464 13.4835 154.545 13.9651C154.625 14.4468 154.625 15.089 154.518 15.9453L154.009 20.1199C153.849 21.4311 154.063 22.5015 154.678 23.3042C155.294 24.1338 156.123 24.5352 157.14 24.5352C157.943 24.5352 158.746 24.2944 159.602 23.7859C160.459 23.3042 161.208 22.5282 161.85 21.4578C161.904 22.4212 162.251 23.1972 162.84 23.7324C163.429 24.2676 164.178 24.5352 165.115 24.5352C165.81 24.5352 166.533 24.3479 167.229 23.9465C167.924 23.5451 168.379 23.1169 168.593 22.6353C168.647 22.5015 168.62 22.3944 168.486 22.2874C168.326 22.1803 168.165 22.0733 167.978 21.9395C167.764 21.8325 167.603 21.4846 167.496 20.8959C167.389 20.3072 167.389 19.5311 167.496 18.5678ZM167.336 7.16819C167.791 6.47244 167.978 5.80345 167.924 5.13445C167.844 4.49222 167.55 3.98379 167.015 3.60916C166.479 3.23452 165.864 3.12748 165.168 3.28804C164.472 3.4486 163.937 3.82323 163.509 4.41194C162.787 5.37529 162.733 6.28512 163.322 7.19495C163.536 7.51606 163.375 7.7569 162.894 7.97098C162.091 8.34561 161.315 8.34561 160.566 7.97098C160.137 7.78366 160.057 7.51606 160.378 7.19495C161.154 6.28512 161.315 5.37529 160.86 4.41194C160.566 3.82323 160.084 3.4486 159.442 3.28804C158.799 3.12748 158.157 3.23452 157.542 3.60916C156.899 3.98379 156.471 4.49222 156.231 5.18797C155.99 5.88372 156.043 6.52595 156.364 7.16819C156.926 8.29209 157.943 9.04136 159.415 9.44276C160.887 9.87091 162.385 9.87091 163.911 9.44276C165.436 9.0146 166.586 8.26533 167.336 7.16819ZM201.916 9.30896C202.478 7.97098 202.157 6.79355 200.952 5.72317C199.748 4.67954 198.089 4.17111 196.002 4.17111C193.54 4.17111 191.319 4.8401 189.392 6.15132C184.308 4.38518 180.374 4.22463 177.538 5.69641C175.664 6.71327 174.781 8.07801 174.835 9.84415C174.862 11.0483 175.236 12.0384 175.959 12.8412C176.655 13.644 177.618 14.0989 178.849 14.206C179.732 14.2863 180.535 14.1525 181.23 13.7778C181.926 13.4032 182.435 12.8947 182.756 12.2258C182.809 12.1455 182.676 11.8511 182.354 11.3159C182.033 10.7807 181.953 10.2991 182.087 9.81739C182.301 9.0146 182.916 8.50617 183.987 8.34561C185.03 8.18505 186.074 8.26533 187.091 8.61321C185.806 10.5667 185.084 12.4398 184.923 14.206C184.602 17.0425 185.218 19.4509 186.77 21.4846C188.322 23.5183 190.382 24.4817 193.005 24.4282C194.022 24.4282 195.012 24.2676 195.922 23.9465C196.831 23.6254 197.554 23.2775 198.143 22.8493C198.705 22.4212 199.213 21.9663 199.695 21.4311C200.15 20.9226 200.471 20.4945 200.685 20.1199C200.899 19.772 201.033 19.4509 201.14 19.1833C201.22 18.9692 201.273 18.7819 201.3 18.6213C201.3 18.327 201.14 18.3002 200.792 18.5678C199.855 19.3171 198.838 19.8523 197.714 20.1199C196.591 20.4142 195.52 20.441 194.53 20.2269C193.54 20.0128 192.71 19.3973 192.041 18.3805C191.372 17.3904 191.051 16.0791 191.051 14.42C191.051 13.7243 191.158 13.0018 191.372 12.199C191.586 11.3962 191.827 10.7272 192.148 10.192C192.844 10.4596 193.46 10.7005 193.995 10.861C194.53 11.0216 195.145 11.2089 195.841 11.3695C196.537 11.5568 197.179 11.637 197.741 11.637C198.303 11.637 198.865 11.5835 199.427 11.4765C199.962 11.3695 200.471 11.1286 200.899 10.754C201.327 10.3793 201.648 9.89767 201.916 9.30896ZM196.965 8.0245C196.858 8.29209 196.591 8.45265 196.189 8.47941C195.788 8.53293 195.36 8.47941 194.905 8.37237C194.423 8.26533 193.968 8.10477 193.54 7.8907C193.62 7.83718 193.7 7.7569 193.808 7.70338C194.691 7.16819 195.547 7.00763 196.35 7.19495C196.938 7.3555 197.126 7.6231 196.965 8.0245ZM216.739 18.4072C216.9 17.1763 217.274 14.5271 217.917 10.4596C217.917 10.4061 217.89 10.3526 217.836 10.3258H212.484L212.431 10.3526C212.404 10.3526 212.377 10.3793 212.351 10.4061C212.324 10.4329 212.324 10.4596 212.324 10.4864L212.083 12.3328C211.334 10.6469 210.13 9.79063 208.417 9.79063C206.731 9.79063 205.313 10.4596 204.189 11.7976C203.065 13.1356 202.369 14.7947 202.155 16.7214C201.995 17.9523 202.021 19.1565 202.289 20.2804C202.557 21.4311 203.038 22.3944 203.788 23.1705C204.51 23.9732 205.42 24.3479 206.49 24.3479C208.256 24.3479 209.782 23.3578 211.093 21.324C211.147 22.2874 211.468 23.0367 212.056 23.5718C212.645 24.107 213.421 24.3746 214.358 24.3746C215.053 24.3746 215.776 24.1873 216.472 23.7859C217.167 23.3845 217.596 22.9564 217.81 22.4747C217.863 22.3677 217.836 22.2606 217.783 22.1803C217.703 22.1268 217.596 22.0465 217.435 21.9663C217.274 21.886 217.114 21.7254 216.98 21.4846C216.846 21.2438 216.739 20.8959 216.686 20.4142C216.605 19.9325 216.632 19.2635 216.739 18.4072ZM209.22 20.655C208.578 20.655 208.149 20.3339 207.882 19.6382C207.614 18.9692 207.534 18.1129 207.668 17.0425C207.775 15.9989 208.069 15.1426 208.497 14.4468C208.925 13.7511 209.461 13.4032 210.103 13.4032C210.718 13.4032 211.173 13.7511 211.441 14.4468C211.708 15.1426 211.789 15.9989 211.682 17.0425C211.548 18.1129 211.254 18.9692 210.825 19.6382C210.397 20.3339 209.862 20.655 209.22 20.655ZM225.455 4.03731C224.277 3.90351 223.207 4.03731 222.244 4.46546C221.28 4.89362 220.692 5.66965 220.531 6.79355C220.424 7.56958 220.585 8.23857 221.039 8.80053C221.494 9.36248 221.896 9.63007 222.217 9.63007C222.244 9.63007 222.377 9.57655 222.591 9.46952C222.806 9.36248 223.127 9.22868 223.501 9.12164C223.876 9.0146 224.277 8.93432 224.705 8.93432C226.498 8.93432 227.917 9.49627 228.96 10.5934C230.004 11.7173 230.432 13.0821 230.271 14.6876H230.245C230.111 13.8313 229.683 13.0553 228.987 12.4131C228.265 11.7708 227.355 11.3962 226.284 11.2892C224.491 11.1554 222.939 11.6638 221.628 12.8145C220.317 13.9919 219.541 15.5707 219.327 17.5777C219.059 19.6114 219.541 21.2705 220.745 22.555C221.922 23.8662 223.635 24.5084 225.829 24.5084C227.97 24.5084 229.736 23.6254 231.155 21.8592C232.573 20.0931 233.376 17.5777 233.563 14.3665C233.616 13.2159 233.536 12.092 233.269 10.9948C233.001 9.89767 232.573 8.85404 231.984 7.86394C231.395 6.87383 230.539 6.04428 229.415 5.34853C228.291 4.65278 226.953 4.22463 225.455 4.03731ZM228.211 17.8453C227.89 20.2537 227.141 21.4578 225.963 21.4578C224.732 21.4578 224.277 20.2537 224.598 17.8453C224.866 15.4369 225.615 14.206 226.846 14.206C228.024 14.206 228.479 15.4369 228.211 17.8453Z" fill="#005320"/>
<line x1="8.35501e-08" y1="31.5382" x2="229.368" y2="31.5382" stroke="#005320" stroke-width="1.9114"/>
<path d="M6.70042 51.3318C6.652 51.5981 6.652 51.7918 6.70042 51.9128C6.74884 52.0218 6.8699 52.0763 7.06359 52.0763C7.3057 52.0763 7.52965 51.9431 7.73545 51.6768C7.95335 51.3983 8.1773 50.9141 8.40731 50.2241L8.6252 49.5522H8.97021L8.53441 50.8778C8.37704 51.362 8.18335 51.7434 7.95335 52.0218C7.73545 52.2881 7.48728 52.4757 7.20886 52.5847C6.94253 52.6936 6.66411 52.7481 6.37357 52.7481C5.98619 52.7481 5.67145 52.615 5.42934 52.3486C5.18723 52.0702 5.13275 51.6283 5.26591 51.0231L5.52013 49.8246C5.6654 49.1225 5.58671 48.608 5.28407 48.2812C4.99354 47.9422 4.33984 47.7364 3.32297 47.6638V47.5911C3.78298 47.5548 4.24905 47.5548 4.72116 47.5911C5.20539 47.6275 5.63513 47.7304 6.01041 47.8998C6.38568 48.0572 6.67016 48.2993 6.86385 48.6262C7.05754 48.9409 7.09991 49.3586 6.99096 49.8791L6.70042 51.3318ZM8.29835 43.2876C8.15309 43.2876 8.02598 43.3118 7.91703 43.3603C7.82019 43.4087 7.72334 43.4692 7.6265 43.5418C7.39649 43.7234 7.19675 43.9837 7.02727 44.3226C6.8699 44.6616 6.70648 45.0248 6.537 45.4121C6.37963 45.7874 6.17988 46.1506 5.93777 46.5016C5.70777 46.8406 5.39908 47.119 5.0117 47.3369C4.63643 47.5548 4.14615 47.6577 3.54087 47.6456L3.35929 47.6638L3.39561 47.464C3.98878 47.4277 4.46695 47.2946 4.83011 47.0646C5.19328 46.8346 5.48381 46.5501 5.70171 46.2111C5.91961 45.8722 6.1012 45.5211 6.24646 45.1579C6.40384 44.7827 6.56121 44.4316 6.71858 44.1048C6.88806 43.7779 7.09991 43.5176 7.35412 43.3239C7.57202 43.1545 7.76571 43.0455 7.93519 42.9971C8.11677 42.9366 8.28625 42.9063 8.44362 42.9063C8.86732 42.9063 9.15785 43.0153 9.31522 43.2331C9.47259 43.4389 9.53917 43.6871 9.51496 43.9776C9.50286 44.1229 9.46049 44.2863 9.38785 44.4679C9.31522 44.6495 9.20022 44.8069 9.04285 44.94C8.89758 45.0732 8.70389 45.1398 8.46178 45.1398C8.19546 45.1398 8.00782 45.0611 7.89887 44.9037C7.78992 44.7342 7.7415 44.5527 7.75361 44.359C7.76571 44.1895 7.82624 44.0079 7.93519 43.8142C8.04414 43.6084 8.1773 43.4329 8.33467 43.2876C8.32257 43.2876 8.31651 43.2876 8.31651 43.2876C8.31651 43.2876 8.31046 43.2876 8.29835 43.2876ZM1.97926 52.4939H0.417642L2.85086 44.704C2.89928 44.5829 2.94165 44.4377 2.97797 44.2682C3.01428 44.0866 3.01428 43.9292 2.97797 43.7961C2.94165 43.6508 2.82665 43.5782 2.63296 43.5782C2.36664 43.5782 2.11847 43.7174 1.88847 43.9958C1.65846 44.2742 1.41635 44.7524 1.16213 45.4303L0.907916 46.1022H0.562908L1.05318 44.7766C1.24687 44.2682 1.47082 43.8808 1.72504 43.6145C1.99136 43.3482 2.26374 43.1666 2.54217 43.0697C2.82059 42.9608 3.08086 42.9063 3.32297 42.9063C3.68614 42.9063 3.94036 42.991 4.08562 43.1605C4.23089 43.3179 4.30958 43.5237 4.32168 43.7779C4.33379 44.0321 4.30352 44.3105 4.23089 44.6132C4.15826 44.9037 4.08562 45.1821 4.01299 45.4485L1.97926 52.4939ZM15.6987 43.2695C15.3113 43.2695 14.9361 43.4268 14.5729 43.7416C14.2218 44.0442 13.895 44.4619 13.5924 44.9945C13.3018 45.515 13.0416 46.1022 12.8116 46.7559C12.5937 47.4096 12.4242 48.0875 12.3031 48.7896C12.1821 49.4917 12.1215 50.1636 12.1215 50.8052C12.1215 51.3499 12.2063 51.7494 12.3758 52.0036C12.5573 52.2578 12.8176 52.3849 13.1566 52.3849C13.5439 52.3849 13.9132 52.2336 14.2642 51.931C14.6274 51.6162 14.9603 51.1986 15.2629 50.6781C15.5656 50.1454 15.8258 49.5522 16.0437 48.8985C16.2616 48.2448 16.4311 47.573 16.5522 46.883C16.6732 46.1809 16.7337 45.5029 16.7337 44.8492C16.7337 44.2924 16.649 43.8929 16.4795 43.6508C16.3101 43.3966 16.0498 43.2695 15.6987 43.2695ZM10.5599 49.8973C10.5599 49.3646 10.6326 48.7835 10.7778 48.1541C10.9231 47.5246 11.141 46.9011 11.4315 46.2837C11.7221 45.6664 12.0731 45.1035 12.4847 44.595C12.9084 44.0866 13.3987 43.6811 13.9555 43.3784C14.5124 43.0637 15.1298 42.9063 15.8077 42.9063C16.5582 42.9063 17.1574 43.1424 17.6053 43.6145C18.0654 44.0745 18.2954 44.7887 18.2954 45.7572C18.2954 46.2898 18.2227 46.8709 18.0775 47.5004C17.9322 48.1298 17.7143 48.7533 17.4238 49.3707C17.1332 49.988 16.7761 50.551 16.3524 51.0594C15.9408 51.5678 15.4566 51.9794 14.8998 52.2942C14.3429 52.5968 13.7255 52.7481 13.0476 52.7481C12.2971 52.7481 11.6918 52.5121 11.2318 52.0399C10.7839 51.5678 10.5599 50.8536 10.5599 49.8973ZM21.2421 52.4939H19.6623L21.8413 44.704C21.8777 44.595 21.9079 44.4558 21.9321 44.2863C21.9685 44.1048 21.9685 43.9413 21.9321 43.7961C21.8958 43.6508 21.7808 43.5782 21.5871 43.5782C21.3208 43.5782 21.0787 43.7174 20.8608 43.9958C20.6429 44.2742 20.4129 44.7524 20.1708 45.4303L19.9347 46.1022H19.5897L20.0437 44.7766C20.2253 44.2682 20.4371 43.8808 20.6792 43.6145C20.9334 43.3482 21.1937 43.1666 21.46 43.0697C21.7384 42.9608 21.9987 42.9063 22.2408 42.9063C22.604 42.9063 22.8643 42.991 23.0216 43.1605C23.179 43.3179 23.2637 43.5297 23.2759 43.7961C23.3001 44.0503 23.2819 44.3226 23.2214 44.6132C23.1608 44.9037 23.0943 45.1821 23.0216 45.4485L21.2421 52.4939ZM26.3809 45.0127C26.4657 44.7584 26.5201 44.5163 26.5444 44.2863C26.5807 44.0563 26.5625 43.8687 26.4899 43.7234C26.4293 43.5661 26.2841 43.4874 26.0541 43.4874C25.7151 43.4874 25.3398 43.6992 24.9283 44.1229C24.5288 44.5345 24.1172 45.1156 23.6935 45.8661C23.2819 46.6045 22.8824 47.4701 22.495 48.4627C22.1077 49.4433 21.7627 50.4965 21.46 51.6223L22.0592 48.717C22.6161 47.2643 23.1366 46.1143 23.6209 45.2669C24.1051 44.4195 24.5893 43.8142 25.0735 43.4511C25.5699 43.0879 26.0964 42.9063 26.6533 42.9063C27.0407 42.9063 27.3191 42.9971 27.4886 43.1787C27.6702 43.3482 27.7791 43.5721 27.8154 43.8505C27.8518 44.129 27.8396 44.4255 27.7791 44.7403C27.7307 45.055 27.6702 45.3577 27.5975 45.6482L25.7454 52.4939H24.1111L26.3809 45.0127ZM30.9205 45.0127C31.0416 44.6374 31.1021 44.2924 31.1021 43.9776C31.1021 43.6508 30.9689 43.4874 30.7026 43.4874C30.3394 43.4874 29.9581 43.6992 29.5586 44.1229C29.1591 44.5466 28.7476 45.1519 28.3239 45.9387C27.9002 46.7135 27.4765 47.6275 27.0528 48.6806C26.6412 49.7217 26.2417 50.8718 25.8543 52.1307L26.272 49.8065C26.7441 48.5475 27.1799 47.4822 27.5794 46.6106C27.9789 45.7269 28.3723 45.0127 28.7597 44.4679C29.147 43.9232 29.5465 43.5297 29.9581 43.2876C30.3697 43.0334 30.8176 42.9063 31.3018 42.9063C31.8103 42.9063 32.1553 43.0516 32.3369 43.3421C32.5184 43.6326 32.5911 43.9897 32.5548 44.4134C32.5305 44.825 32.4519 45.2366 32.3187 45.6482L30.5573 50.9504C30.4363 51.3257 30.3939 51.6102 30.4302 51.8039C30.4665 51.9855 30.6058 52.0763 30.8479 52.0763C31.0779 52.0763 31.3018 51.9491 31.5197 51.6949C31.7497 51.4407 31.9918 50.9504 32.2461 50.2241L32.4821 49.5522H32.8271L32.3732 50.8778C32.2037 51.3862 31.9918 51.7736 31.7376 52.0399C31.4955 52.3063 31.2353 52.4878 30.9568 52.5847C30.6905 52.6936 30.4302 52.7481 30.176 52.7481C29.8734 52.7481 29.6313 52.6997 29.4497 52.6028C29.2802 52.5181 29.147 52.4031 29.0502 52.2578C28.9049 52.0278 28.8565 51.7434 28.9049 51.4044C28.9534 51.0533 29.0502 50.6539 29.1955 50.2059L30.9205 45.0127ZM35.9248 52.4939H34.3451L36.5241 44.704C36.5604 44.595 36.5906 44.4558 36.6148 44.2863C36.6512 44.1048 36.6512 43.9413 36.6148 43.7961C36.5785 43.6508 36.4635 43.5782 36.2698 43.5782C36.0035 43.5782 35.7614 43.7174 35.5435 43.9958C35.3256 44.2742 35.0956 44.7524 34.8535 45.4303L34.6174 46.1022H34.2724L34.7264 44.7766C34.908 44.2682 35.1198 43.8808 35.3619 43.6145C35.6161 43.3482 35.8764 43.1666 36.1427 43.0697C36.4212 42.9608 36.6814 42.9063 36.9235 42.9063C37.2867 42.9063 37.547 42.991 37.7043 43.1605C37.8617 43.3179 37.9465 43.5297 37.9586 43.7961C37.9828 44.0503 37.9646 44.3226 37.9041 44.6132C37.8436 44.9037 37.777 45.1821 37.7043 45.4485L35.9248 52.4939ZM41.0636 45.0127C41.1484 44.7584 41.2028 44.5163 41.2271 44.2863C41.2634 44.0563 41.2452 43.8687 41.1726 43.7234C41.1121 43.5661 40.9668 43.4874 40.7368 43.4874C40.3978 43.4874 40.0226 43.6992 39.611 44.1229C39.2115 44.5345 38.7999 45.1156 38.3762 45.8661C37.9646 46.6045 37.5651 47.4701 37.1778 48.4627C36.7904 49.4433 36.4454 50.4965 36.1427 51.6223L36.742 48.717C37.2988 47.2643 37.8193 46.1143 38.3036 45.2669C38.7878 44.4195 39.272 43.8142 39.7562 43.4511C40.2526 43.0879 40.7792 42.9063 41.336 42.9063C41.7234 42.9063 42.0018 42.9971 42.1713 43.1787C42.3529 43.3482 42.4618 43.5721 42.4981 43.8505C42.5345 44.129 42.5224 44.4255 42.4618 44.7403C42.4134 45.055 42.3529 45.3577 42.2802 45.6482L40.4281 52.4939H38.7938L41.0636 45.0127ZM45.6032 45.0127C45.7243 44.6374 45.7848 44.2924 45.7848 43.9776C45.7848 43.6508 45.6516 43.4874 45.3853 43.4874C45.0221 43.4874 44.6408 43.6992 44.2413 44.1229C43.8419 44.5466 43.4303 45.1519 43.0066 45.9387C42.5829 46.7135 42.1592 47.6275 41.7355 48.6806C41.3239 49.7217 40.9244 50.8718 40.537 52.1307L40.9547 49.8065C41.4268 48.5475 41.8626 47.4822 42.2621 46.6106C42.6616 45.7269 43.055 45.0127 43.4424 44.4679C43.8298 43.9232 44.2292 43.5297 44.6408 43.2876C45.0524 43.0334 45.5003 42.9063 45.9845 42.9063C46.493 42.9063 46.838 43.0516 47.0196 43.3421C47.2011 43.6326 47.2738 43.9897 47.2375 44.4134C47.2133 44.825 47.1346 45.2366 47.0014 45.6482L45.24 50.9504C45.119 51.3257 45.0766 51.6102 45.1129 51.8039C45.1493 51.9855 45.2885 52.0763 45.5306 52.0763C45.7606 52.0763 45.9845 51.9491 46.2024 51.6949C46.4324 51.4407 46.6746 50.9504 46.9288 50.2241L47.1648 49.5522H47.5098L47.0559 50.8778C46.8864 51.3862 46.6746 51.7736 46.4203 52.0399C46.1782 52.3063 45.918 52.4878 45.6395 52.5847C45.3732 52.6936 45.1129 52.7481 44.8587 52.7481C44.5561 52.7481 44.314 52.6997 44.1324 52.6028C43.9629 52.5181 43.8298 52.4031 43.7329 52.2578C43.5876 52.0278 43.5392 51.7434 43.5876 51.4044C43.6361 51.0533 43.7329 50.6539 43.8782 50.2059L45.6032 45.0127ZM49.9357 48.372C50.6136 48.142 51.2249 47.918 51.7697 47.7001C52.3265 47.4701 52.7684 47.228 53.0952 46.9738C53.531 46.6227 53.876 46.199 54.1303 45.7027C54.3845 45.2064 54.5116 44.6616 54.5116 44.0684C54.5116 43.7174 54.4874 43.4934 54.4389 43.3966C54.3905 43.2997 54.3179 43.2513 54.221 43.2513C53.9184 43.2513 53.5916 43.3845 53.2405 43.6508C52.8894 43.9171 52.5444 44.2863 52.2055 44.7584C51.8665 45.2185 51.5518 45.7451 51.2612 46.3382C50.9828 46.9314 50.7589 47.5669 50.5894 48.2448C50.4199 48.9107 50.3352 49.5765 50.3352 50.2423C50.3352 50.8596 50.4502 51.3076 50.6802 51.586C50.9102 51.8523 51.2128 51.9855 51.5881 51.9855C52.0239 51.9855 52.4839 51.8523 52.9681 51.586C53.4523 51.3197 53.9245 50.8475 54.3845 50.1696L54.675 50.3149C54.445 50.7144 54.1424 51.1018 53.7671 51.477C53.3918 51.8523 52.9681 52.161 52.496 52.4031C52.036 52.6331 51.5457 52.7481 51.0252 52.7481C50.541 52.7481 50.1173 52.6513 49.7541 52.4576C49.3909 52.2639 49.1125 51.9794 48.9188 51.6041C48.7251 51.2168 48.6283 50.7446 48.6283 50.1878C48.6283 49.6673 48.7251 49.0862 48.9188 48.4446C49.1125 47.7909 49.3849 47.1432 49.7359 46.5016C50.0991 45.8479 50.5288 45.2487 51.0252 44.704C51.5215 44.1592 52.0723 43.7234 52.6776 43.3966C53.2829 43.0697 53.9305 42.9063 54.6205 42.9063C54.9958 42.9063 55.3105 43.0092 55.5648 43.215C55.8311 43.4087 55.9642 43.7053 55.9642 44.1048C55.9642 44.589 55.819 45.0429 55.5284 45.4666C55.25 45.8782 54.8747 46.2595 54.4026 46.6106C53.9426 46.9496 53.4402 47.2522 52.8955 47.5185C52.3507 47.7848 51.8181 48.0148 51.2976 48.2085C50.777 48.4022 50.317 48.5596 49.9175 48.6806L49.9357 48.372ZM62.7502 44.8492C62.7502 43.6266 62.5868 42.6158 62.2599 41.8168C61.9331 41.0178 61.4973 40.3641 60.9525 39.8557C60.4199 39.3473 59.8328 38.9296 59.1912 38.6028L59.4091 38.2941C60.3775 38.6573 61.231 39.1475 61.9694 39.7649C62.7078 40.3823 63.2829 41.151 63.6944 42.071C64.106 42.991 64.3118 44.0805 64.3118 45.3395C64.3118 45.9569 64.2392 46.6106 64.0939 47.3006C63.9487 47.9785 63.7308 48.6383 63.4402 49.2799C63.1497 49.9215 62.7926 50.5086 62.3689 51.0412C61.9573 51.5618 61.4731 51.9794 60.9162 52.2942C60.3594 52.5968 59.742 52.7481 59.0641 52.7481C58.5677 52.7481 58.1319 52.6452 57.7567 52.4394C57.3814 52.2336 57.0909 51.9189 56.8851 51.4952C56.6793 51.0715 56.5764 50.5389 56.5764 49.8973C56.5764 49.3646 56.649 48.7835 56.7943 48.1541C56.9395 47.5246 57.1514 46.9011 57.4298 46.2837C57.7204 45.6664 58.0714 45.1035 58.483 44.595C58.8946 44.0866 59.3667 43.6811 59.8994 43.3784C60.432 43.0637 61.0191 42.9063 61.6607 42.9063C62.0481 42.9063 62.3386 42.9789 62.5323 43.1242C62.726 43.2574 62.8834 43.3905 63.0044 43.5237L62.8773 43.7416C62.7563 43.5842 62.5989 43.4692 62.4052 43.3966C62.2236 43.3118 61.9755 43.2695 61.6607 43.2695C61.2854 43.2695 60.9223 43.4268 60.5712 43.7416C60.2201 44.0442 59.8933 44.4619 59.5907 44.9945C59.3001 45.515 59.0459 46.1022 58.828 46.7559C58.6101 47.4096 58.4406 48.0875 58.3196 48.7896C58.1985 49.4917 58.138 50.1636 58.138 50.8052C58.138 51.3499 58.2227 51.7494 58.3922 52.0036C58.5738 52.2578 58.8341 52.3849 59.173 52.3849C59.5604 52.3849 59.9296 52.2336 60.2807 51.931C60.6438 51.6162 60.9767 51.1986 61.2794 50.6781C61.582 50.1454 61.8423 49.5522 62.0602 48.8985C62.2781 48.2448 62.4476 47.573 62.5686 46.883C62.6897 46.1809 62.7502 45.5029 62.7502 44.8492ZM70.0009 47.4277H77.0827V47.7909H70.0009V47.4277ZM66.1877 45.3395C66.3935 44.9279 66.6356 44.5405 66.914 44.1774C67.2045 43.8021 67.5435 43.4995 67.9309 43.2695C68.3303 43.0274 68.7964 42.9063 69.3291 42.9063C70.0191 42.9063 70.5517 43.1303 70.927 43.5782C71.3144 44.014 71.508 44.6798 71.508 45.5756C71.508 46.1324 71.4354 46.7377 71.2901 47.3914C71.1449 48.033 70.933 48.6746 70.6546 49.3162C70.3762 49.9457 70.0372 50.5207 69.6377 51.0412C69.2383 51.5497 68.7782 51.9613 68.2577 52.276C67.7493 52.5907 67.1864 52.7481 66.569 52.7481C66.0848 52.7481 65.6671 52.615 65.3161 52.3486C64.965 52.0702 64.7895 51.6889 64.7895 51.2047C64.7895 50.9746 64.8439 50.7507 64.9529 50.5328C65.0497 50.3028 65.195 50.1152 65.3887 49.9699C65.5824 49.8246 65.8124 49.752 66.0787 49.752C66.3329 49.752 66.5206 49.8246 66.6416 49.9699C66.7627 50.1031 66.8232 50.2665 66.8232 50.4602C66.8232 50.8112 66.684 51.1139 66.4056 51.3681C66.1271 51.6102 65.8124 51.7615 65.4613 51.822C65.5582 51.9915 65.6913 52.1307 65.8608 52.2397C66.0303 52.3365 66.2482 52.3849 66.5145 52.3849C66.914 52.3849 67.3074 52.1973 67.6948 51.822C68.0822 51.4468 68.4332 50.9323 68.748 50.2786C69.0748 49.6249 69.3351 48.8804 69.5288 48.0451C69.7225 47.2098 69.8193 46.3322 69.8193 45.4121C69.8193 44.7948 69.7285 44.3529 69.547 44.0866C69.3775 43.8082 69.1293 43.6689 68.8025 43.6689C68.4756 43.6689 68.1064 43.8021 67.6948 44.0684C67.2953 44.3348 66.914 44.8069 66.5508 45.4848L66.1877 45.3395ZM73.9413 43.1605C74.2439 43.1484 74.5344 43.1242 74.8129 43.0879C75.1034 43.0516 75.3637 42.991 75.5937 42.9063L73.0878 52.4939C73.0878 52.4939 73.0333 52.4939 72.9244 52.4939C72.8154 52.4939 72.6823 52.4939 72.5249 52.4939C72.3796 52.4939 72.2283 52.4939 72.071 52.4939C71.9136 52.4939 71.7804 52.4939 71.6715 52.4939C71.5625 52.4939 71.508 52.4939 71.508 52.4939L73.9413 43.1605ZM80.6054 43.2695C80.2059 43.2695 79.8125 43.4571 79.4251 43.8324C79.0377 44.2076 78.6806 44.7221 78.3537 45.3758C78.039 46.0295 77.7848 46.774 77.5911 47.6093C77.3974 48.4446 77.3006 49.3222 77.3006 50.2423C77.3006 50.8596 77.3853 51.3076 77.5548 51.586C77.7364 51.8523 77.9906 51.9855 78.3174 51.9855C78.6443 51.9855 79.0074 51.8523 79.4069 51.586C79.8185 51.3197 80.2059 50.8475 80.5691 50.1696L80.9322 50.3149C80.7264 50.7144 80.4783 51.1018 80.1877 51.477C79.9093 51.8523 79.5764 52.161 79.189 52.4031C78.8016 52.6331 78.3356 52.7481 77.7908 52.7481C77.1008 52.7481 76.5621 52.5242 76.1747 52.0763C75.7995 51.6283 75.6118 50.9625 75.6118 50.0788C75.6118 49.522 75.6845 48.9228 75.8297 48.2812C75.975 47.6275 76.1868 46.9859 76.4653 46.3564C76.7437 45.7148 77.0827 45.1398 77.4821 44.6313C77.8816 44.1108 78.3356 43.6932 78.844 43.3784C79.3646 43.0637 79.9335 42.9063 80.5509 42.9063C81.0351 42.9063 81.4528 43.0455 81.8038 43.3239C82.1549 43.5903 82.3304 43.9655 82.3304 44.4498C82.3304 44.6798 82.2759 44.9098 82.167 45.1398C82.0701 45.3577 81.9249 45.5393 81.7312 45.6845C81.5375 45.8298 81.3075 45.9024 81.0412 45.9024C80.787 45.9024 80.5993 45.8358 80.4783 45.7027C80.3572 45.5574 80.2967 45.3879 80.2967 45.1942C80.2967 44.8432 80.4359 44.5466 80.7143 44.3045C80.9927 44.0503 81.3075 43.8929 81.6586 43.8324C81.5617 43.6629 81.4285 43.5297 81.2591 43.4329C81.0896 43.3239 80.8717 43.2695 80.6054 43.2695ZM85.2177 47.4277H90.1205V47.7909H85.2177V47.4277ZM84.6367 52.4939H83.0569L85.2359 44.704C85.2722 44.5829 85.3085 44.4377 85.3448 44.2682C85.3812 44.0866 85.3751 43.9292 85.3267 43.7961C85.2904 43.6508 85.1754 43.5782 84.9817 43.5782C84.7154 43.5782 84.4732 43.7174 84.2553 43.9958C84.0374 44.2742 83.8074 44.7524 83.5653 45.4303L83.3293 46.1022H82.9843L83.4382 44.7766C83.6198 44.2682 83.8316 43.8808 84.0738 43.6145C84.328 43.3482 84.5882 43.1666 84.8546 43.0697C85.133 42.9608 85.3933 42.9063 85.6354 42.9063C85.9985 42.9063 86.2528 42.991 86.398 43.1605C86.5554 43.3179 86.6401 43.5237 86.6522 43.7779C86.6764 44.0321 86.6583 44.3105 86.5978 44.6132C86.5493 44.9037 86.4888 45.1821 86.4162 45.4485L84.6367 52.4939ZM89.9389 50.9504C89.8542 51.2773 89.8118 51.5497 89.8118 51.7676C89.8239 51.9734 89.951 52.0763 90.1931 52.0763C90.4594 52.0763 90.7015 51.937 90.9194 51.6586C91.1495 51.3681 91.3795 50.8899 91.6095 50.2241L91.8455 49.5522H92.1905L91.7366 50.8778C91.5671 51.3862 91.3552 51.7736 91.101 52.0399C90.8589 52.3063 90.5986 52.4878 90.3202 52.5847C90.0539 52.6936 89.7936 52.7481 89.5394 52.7481C89.3457 52.7481 89.1641 52.7057 88.9947 52.621C88.8252 52.5363 88.6981 52.4152 88.6133 52.2578C88.5165 52.052 88.4802 51.7918 88.5044 51.477C88.5407 51.1623 88.6254 50.7386 88.7586 50.2059L90.5381 43.1605C90.8408 43.1484 91.1313 43.1242 91.4097 43.0879C91.7003 43.0516 91.9605 42.991 92.1905 42.9063L89.9389 50.9504ZM102.521 50.9504C102.437 51.2773 102.394 51.5497 102.394 51.7676C102.406 51.9734 102.534 52.0763 102.776 52.0763C103.042 52.0763 103.284 51.937 103.502 51.6586C103.732 51.3681 103.962 50.8899 104.192 50.2241L104.428 49.5522H104.773L104.319 50.8778C104.15 51.3862 103.938 51.7736 103.684 52.0399C103.429 52.3063 103.169 52.4878 102.903 52.5847C102.649 52.6936 102.406 52.7481 102.176 52.7481C101.971 52.7481 101.765 52.7118 101.559 52.6392C101.353 52.5665 101.202 52.4394 101.105 52.2578C101.02 52.0884 100.984 51.8462 100.996 51.5315C101.02 51.2047 101.105 50.7628 101.25 50.2059L103.121 43.1605C103.423 43.1484 103.714 43.1242 103.992 43.0879C104.283 43.0516 104.543 42.991 104.773 42.9063L102.521 50.9504ZM98.218 47.2643C98.8595 47.2643 99.3559 47.4398 99.7069 47.7909C100.058 48.142 100.234 48.608 100.234 49.1891C100.234 49.7338 100.076 50.2846 99.7614 50.8415C99.4467 51.3862 98.9988 51.8402 98.4177 52.2034C97.8487 52.5665 97.1587 52.7481 96.3476 52.7481C95.8997 52.7481 95.4882 52.6755 95.1129 52.5302C94.7497 52.3849 94.4592 52.1489 94.2413 51.822C94.0234 51.4831 93.9205 51.0473 93.9326 50.5146C93.9447 49.9699 94.1021 49.298 94.4047 48.4991L95.8755 44.704C95.9361 44.5466 95.9784 44.3832 96.0026 44.2137C96.039 44.0321 96.0268 43.8808 95.9663 43.7597C95.9179 43.6387 95.7968 43.5782 95.6032 43.5782C95.3368 43.5782 95.0947 43.7295 94.8768 44.0321C94.6589 44.3226 94.435 44.7887 94.205 45.4303L93.9689 46.1022H93.6239L94.0779 44.7766C94.2473 44.2924 94.4531 43.9171 94.6952 43.6508C94.9373 43.3724 95.1976 43.1787 95.476 43.0697C95.7545 42.9608 96.0208 42.9063 96.275 42.9063C96.9408 42.9063 97.3161 43.1242 97.4008 43.56C97.4977 43.9958 97.3827 44.6253 97.0558 45.4485L95.6395 49.0257C95.3005 49.8852 95.131 50.5631 95.131 51.0594C95.1431 51.5557 95.2581 51.9068 95.476 52.1126C95.7061 52.3184 95.9724 52.4213 96.275 52.4213C96.6503 52.4213 97.0256 52.3002 97.4008 52.0581C97.7882 51.8039 98.1151 51.4468 98.3814 50.9868C98.6477 50.5267 98.7809 49.9759 98.7809 49.3343C98.7809 48.8743 98.6901 48.5051 98.5085 48.2267C98.339 47.9362 98.0364 47.7909 97.6006 47.7909C97.2616 47.7909 96.8984 47.8938 96.5111 48.0996C96.1237 48.3054 95.8211 48.608 95.6032 49.0075L95.4942 48.8078C95.8453 48.2509 96.269 47.8575 96.7653 47.6275C97.2737 47.3854 97.7579 47.2643 98.218 47.2643ZM112.878 46.2111C112.442 47.4217 112.025 48.4446 111.625 49.2799C111.226 50.1152 110.826 50.787 110.427 51.2954C110.039 51.8039 109.64 52.1731 109.228 52.4031C108.829 52.6331 108.411 52.7481 107.976 52.7481C107.443 52.7481 107.055 52.6271 106.813 52.3849C106.571 52.1428 106.45 51.816 106.45 51.4044C106.45 50.9928 106.535 50.5267 106.704 50.0062L108.466 44.704C108.587 44.3408 108.629 44.0624 108.593 43.8687C108.557 43.675 108.417 43.5782 108.175 43.5782C107.945 43.5782 107.715 43.7053 107.485 43.9595C107.267 44.2137 107.031 44.704 106.777 45.4303L106.541 46.1022H106.196L106.65 44.7766C106.832 44.2682 107.043 43.8808 107.285 43.6145C107.54 43.3482 107.8 43.1666 108.066 43.0697C108.345 42.9608 108.605 42.9063 108.847 42.9063C109.38 42.9063 109.731 43.0334 109.9 43.2876C110.082 43.5297 110.148 43.8445 110.1 44.2319C110.064 44.6192 109.973 45.0248 109.828 45.4485L108.103 50.6417C107.764 51.6586 107.897 52.167 108.502 52.167C108.793 52.167 109.101 52.0399 109.428 51.7857C109.755 51.5194 110.088 51.1441 110.427 50.6599C110.766 50.1636 111.099 49.5765 111.426 48.8985C111.765 48.2085 112.085 47.4459 112.388 46.6106C112.703 45.7632 112.987 44.8553 113.241 43.8868L112.878 46.2111ZM112.824 50.9504C112.739 51.2773 112.697 51.5497 112.697 51.7676C112.709 51.9734 112.836 52.0763 113.078 52.0763C113.344 52.0763 113.586 51.937 113.804 51.6586C114.034 51.3681 114.264 50.8899 114.494 50.2241L114.73 49.5522H115.075L114.621 50.8778C114.452 51.3862 114.24 51.7736 113.986 52.0399C113.744 52.3063 113.484 52.4878 113.205 52.5847C112.939 52.6936 112.679 52.7481 112.424 52.7481C112.231 52.7481 112.049 52.7057 111.88 52.621C111.71 52.5363 111.583 52.4152 111.498 52.2578C111.401 52.052 111.365 51.7918 111.389 51.477C111.426 51.1623 111.51 50.7386 111.643 50.2059L113.423 43.1605C113.726 43.1484 114.016 43.1242 114.295 43.0879C114.585 43.0516 114.845 42.991 115.075 42.9063L112.824 50.9504ZM110.736 40.0918C110.832 40.1765 110.996 40.2552 111.226 40.3278C111.468 40.3883 111.74 40.4186 112.043 40.4186C112.491 40.4186 112.957 40.346 113.441 40.2007C113.937 40.0554 114.404 39.8375 114.839 39.547C115.275 39.2565 115.638 38.8994 115.929 38.4757L116.201 38.6754C115.632 39.4502 114.96 40.001 114.186 40.3278C113.411 40.6547 112.666 40.8181 111.952 40.8181C111.637 40.8181 111.292 40.7818 110.917 40.7091C110.554 40.6244 110.239 40.4852 109.973 40.2915C109.719 40.0857 109.592 39.8012 109.592 39.4381C109.592 39.087 109.713 38.8025 109.955 38.5846C110.197 38.3667 110.481 38.2578 110.808 38.2578C111.05 38.2578 111.238 38.3243 111.371 38.4575C111.516 38.5786 111.589 38.7662 111.589 39.0204C111.589 39.2867 111.51 39.5107 111.353 39.6923C111.196 39.8739 110.99 40.007 110.736 40.0918ZM122.78 52.4939H121.2L123.379 44.704C123.428 44.5587 123.464 44.4013 123.488 44.2319C123.525 44.0503 123.519 43.899 123.47 43.7779C123.422 43.6447 123.301 43.5782 123.107 43.5782C122.841 43.5782 122.605 43.7113 122.399 43.9776C122.193 44.2319 121.963 44.7161 121.709 45.4303L121.473 46.1022H121.128L121.582 44.7766C121.848 44.014 122.175 43.5116 122.562 43.2695C122.962 43.0274 123.355 42.9063 123.743 42.9063C124.106 42.9063 124.366 42.985 124.523 43.1424C124.693 43.2997 124.784 43.5055 124.796 43.7597C124.82 44.0019 124.802 44.2742 124.741 44.5769C124.693 44.8674 124.632 45.1579 124.56 45.4485L122.78 52.4939ZM123.615 48.717C124.039 47.6275 124.451 46.7135 124.85 45.9751C125.25 45.2366 125.643 44.6434 126.031 44.1955C126.418 43.7355 126.811 43.4087 127.211 43.215C127.622 43.0092 128.046 42.9063 128.482 42.9063C129.051 42.9063 129.438 43.0455 129.644 43.3239C129.862 43.5903 129.959 43.9353 129.935 44.359C129.91 44.7706 129.826 45.2003 129.68 45.6482L127.919 50.9504C127.81 51.2773 127.762 51.5497 127.774 51.7676C127.798 51.9734 127.943 52.0763 128.21 52.0763C128.44 52.0763 128.664 51.9491 128.881 51.6949C129.111 51.4407 129.354 50.9504 129.608 50.2241L129.844 49.5522H130.189L129.735 50.8778C129.565 51.3862 129.354 51.7736 129.099 52.0399C128.857 52.3063 128.597 52.4878 128.319 52.5847C128.052 52.6936 127.792 52.7481 127.538 52.7481C127.247 52.7481 127.005 52.6997 126.811 52.6028C126.63 52.506 126.491 52.3789 126.394 52.2215C126.261 52.0036 126.218 51.7191 126.267 51.3681C126.315 51.017 126.412 50.6296 126.557 50.2059L128.282 45.0127C128.343 44.8432 128.391 44.6434 128.427 44.4134C128.476 44.1713 128.47 43.9595 128.409 43.7779C128.349 43.5842 128.173 43.4874 127.883 43.4874C127.592 43.4874 127.283 43.6145 126.957 43.8687C126.63 44.1229 126.291 44.4861 125.94 44.9582C125.589 45.4182 125.244 45.9751 124.905 46.6288C124.566 47.2704 124.239 47.9846 123.924 48.7714C123.622 49.5462 123.343 50.3754 123.089 51.2591L123.615 48.717ZM136.618 43.2695C136.231 43.2695 135.856 43.4268 135.492 43.7416C135.141 44.0442 134.815 44.4619 134.512 44.9945C134.221 45.515 133.961 46.1022 133.731 46.7559C133.513 47.4096 133.344 48.0875 133.223 48.7896C133.102 49.4917 133.041 50.1636 133.041 50.8052C133.041 51.3499 133.126 51.7494 133.295 52.0036C133.477 52.2578 133.737 52.3849 134.076 52.3849C134.463 52.3849 134.833 52.2336 135.184 51.931C135.547 51.6162 135.88 51.1986 136.182 50.6781C136.485 50.1454 136.745 49.5522 136.963 48.8985C137.181 48.2448 137.351 47.573 137.472 46.883C137.593 46.1809 137.653 45.5029 137.653 44.8492C137.653 44.2924 137.569 43.8929 137.399 43.6508C137.23 43.3966 136.969 43.2695 136.618 43.2695ZM131.479 49.8973C131.479 49.3646 131.552 48.7835 131.697 48.1541C131.843 47.5246 132.061 46.9011 132.351 46.2837C132.642 45.6664 132.993 45.1035 133.404 44.595C133.828 44.0866 134.318 43.6811 134.875 43.3784C135.432 43.0637 136.049 42.9063 136.727 42.9063C137.478 42.9063 138.077 43.1424 138.525 43.6145C138.985 44.0745 139.215 44.7887 139.215 45.7572C139.215 46.2898 139.142 46.8709 138.997 47.5004C138.852 48.1298 138.634 48.7533 138.343 49.3707C138.053 49.988 137.696 50.551 137.272 51.0594C136.86 51.5678 136.376 51.9794 135.819 52.2942C135.262 52.5968 134.645 52.7481 133.967 52.7481C133.217 52.7481 132.611 52.5121 132.151 52.0399C131.703 51.5678 131.479 50.8536 131.479 49.8973ZM145.83 43.2695C145.37 43.2695 144.91 43.4571 144.45 43.8324C144.002 44.2076 143.59 44.7221 143.215 45.3758C142.84 46.0295 142.537 46.774 142.307 47.6093C142.089 48.4446 141.98 49.3222 141.98 50.2423C141.98 50.8596 142.095 51.3076 142.325 51.586C142.567 51.8523 142.876 51.9855 143.251 51.9855C143.687 51.9855 144.135 51.8523 144.595 51.586C145.055 51.3197 145.515 50.8475 145.975 50.1696L146.338 50.3149C146.108 50.7144 145.805 51.1018 145.43 51.477C145.055 51.8523 144.631 52.161 144.159 52.4031C143.699 52.6331 143.209 52.7481 142.688 52.7481C141.962 52.7481 141.381 52.5242 140.945 52.0763C140.509 51.6283 140.291 50.9625 140.291 50.0788C140.291 49.522 140.37 48.9228 140.527 48.2812C140.697 47.6275 140.933 46.9859 141.236 46.3564C141.55 45.7148 141.932 45.1398 142.38 44.6313C142.827 44.1108 143.336 43.6932 143.905 43.3784C144.474 43.0637 145.097 42.9063 145.775 42.9063C146.308 42.9063 146.768 43.0455 147.155 43.3239C147.543 43.5903 147.736 43.9655 147.736 44.4498C147.736 44.6798 147.682 44.9098 147.573 45.1398C147.476 45.3577 147.331 45.5393 147.137 45.6845C146.943 45.8298 146.713 45.9024 146.447 45.9024C146.193 45.9024 146.005 45.8358 145.884 45.7027C145.763 45.5574 145.703 45.3879 145.703 45.1942C145.703 44.8432 145.842 44.5466 146.12 44.3045C146.399 44.0503 146.713 43.8929 147.064 43.8324C146.943 43.6629 146.786 43.5297 146.592 43.4329C146.399 43.3239 146.144 43.2695 145.83 43.2695ZM149.328 48.372C150.006 48.142 150.617 47.918 151.162 47.7001C151.719 47.4701 152.16 47.228 152.487 46.9738C152.923 46.6227 153.268 46.199 153.522 45.7027C153.776 45.2064 153.904 44.6616 153.904 44.0684C153.904 43.7174 153.879 43.4934 153.831 43.3966C153.783 43.2997 153.71 43.2513 153.613 43.2513C153.31 43.2513 152.984 43.3845 152.632 43.6508C152.281 43.9171 151.936 44.2863 151.597 44.7584C151.259 45.2185 150.944 45.7451 150.653 46.3382C150.375 46.9314 150.151 47.5669 149.981 48.2448C149.812 48.9107 149.727 49.5765 149.727 50.2423C149.727 50.8596 149.842 51.3076 150.072 51.586C150.302 51.8523 150.605 51.9855 150.98 51.9855C151.416 51.9855 151.876 51.8523 152.36 51.586C152.844 51.3197 153.316 50.8475 153.776 50.1696L154.067 50.3149C153.837 50.7144 153.534 51.1018 153.159 51.477C152.784 51.8523 152.36 52.161 151.888 52.4031C151.428 52.6331 150.938 52.7481 150.417 52.7481C149.933 52.7481 149.509 52.6513 149.146 52.4576C148.783 52.2639 148.505 51.9794 148.311 51.6041C148.117 51.2168 148.02 50.7446 148.02 50.1878C148.02 49.6673 148.117 49.0862 148.311 48.4446C148.505 47.7909 148.777 47.1432 149.128 46.5016C149.491 45.8479 149.921 45.2487 150.417 44.704C150.914 44.1592 151.464 43.7234 152.07 43.3966C152.675 43.0697 153.323 42.9063 154.013 42.9063C154.388 42.9063 154.703 43.0092 154.957 43.215C155.223 43.4087 155.356 43.7053 155.356 44.1048C155.356 44.589 155.211 45.0429 154.92 45.4666C154.642 45.8782 154.267 46.2595 153.795 46.6106C153.335 46.9496 152.832 47.2522 152.287 47.5185C151.743 47.7848 151.21 48.0148 150.69 48.2085C150.169 48.4022 149.709 48.5596 149.31 48.6806L149.328 48.372ZM162.179 50.9323C162.154 51.0412 162.118 51.1865 162.07 51.3681C162.033 51.5376 162.033 51.6949 162.07 51.8402C162.118 51.9855 162.245 52.0581 162.451 52.0581C162.693 52.0581 162.929 51.9249 163.159 51.6586C163.389 51.3923 163.619 50.9081 163.849 50.2059L164.067 49.5341H164.412L163.958 50.8596C163.692 51.586 163.365 52.0823 162.977 52.3486C162.59 52.615 162.221 52.7481 161.87 52.7481C161.64 52.7481 161.44 52.7057 161.271 52.621C161.101 52.5363 160.968 52.4213 160.871 52.276C160.714 51.9976 160.671 51.6768 160.744 51.3136C160.817 50.9383 160.901 50.5631 160.998 50.1878L162.778 43.1605C163.068 43.1484 163.359 43.1242 163.649 43.0879C163.94 43.0516 164.206 42.991 164.448 42.9063L162.179 50.9323ZM155.587 52.4757C155.95 52.4031 156.271 52.2276 156.549 51.9491C156.84 51.6586 157.088 51.3076 157.294 50.896C157.512 50.4723 157.699 50.0304 157.857 49.5704C158.026 49.0983 158.172 48.6383 158.293 48.1904C158.414 47.7304 158.517 47.3309 158.601 46.9919C158.831 46.1324 159.067 45.4 159.31 44.7948C159.552 44.1774 159.83 43.7113 160.145 43.3966C160.46 43.0697 160.835 42.9063 161.271 42.9063C161.767 42.9063 162.118 43.1242 162.324 43.56C162.53 43.9958 162.566 44.5708 162.433 45.285L162.233 45.394C162.318 44.7524 162.275 44.2379 162.106 43.8505C161.936 43.4511 161.646 43.2513 161.234 43.2513C160.883 43.2513 160.581 43.3905 160.326 43.6689C160.084 43.9474 159.872 44.3045 159.691 44.7403C159.509 45.1761 159.346 45.6482 159.201 46.1566C159.067 46.653 158.94 47.119 158.819 47.5548C158.626 48.2812 158.42 48.9772 158.202 49.643C157.984 50.2967 157.724 50.8778 157.421 51.3862C157.131 51.8826 156.767 52.2518 156.332 52.4939C156.138 52.6028 155.95 52.6694 155.769 52.6936C155.587 52.73 155.436 52.7481 155.315 52.7481C155.012 52.7481 154.788 52.6815 154.643 52.5484C154.485 52.4273 154.407 52.2578 154.407 52.0399C154.407 51.7615 154.51 51.5073 154.715 51.2773C154.921 51.0473 155.175 50.9323 155.478 50.9323C155.684 50.9323 155.835 50.9868 155.932 51.0957C156.029 51.1925 156.077 51.3257 156.077 51.4952C156.077 51.6647 156.029 51.8402 155.932 52.0218C155.835 52.1913 155.714 52.3426 155.569 52.4757C155.569 52.4757 155.575 52.4757 155.587 52.4757ZM170.825 43.2695C170.437 43.2695 170.062 43.4268 169.699 43.7416C169.348 44.0442 169.021 44.4619 168.718 44.9945C168.428 45.515 168.168 46.1022 167.938 46.7559C167.72 47.4096 167.55 48.0875 167.429 48.7896C167.308 49.4917 167.248 50.1636 167.248 50.8052C167.248 51.3499 167.332 51.7494 167.502 52.0036C167.683 52.2578 167.944 52.3849 168.283 52.3849C168.67 52.3849 169.039 52.2336 169.39 51.931C169.753 51.6162 170.086 51.1986 170.389 50.6781C170.692 50.1454 170.952 49.5522 171.17 48.8985C171.388 48.2448 171.557 47.573 171.678 46.883C171.799 46.1809 171.86 45.5029 171.86 44.8492C171.86 44.2924 171.775 43.8929 171.606 43.6508C171.436 43.3966 171.176 43.2695 170.825 43.2695ZM165.686 49.8973C165.686 49.3646 165.759 48.7835 165.904 48.1541C166.049 47.5246 166.267 46.9011 166.558 46.2837C166.848 45.6664 167.199 45.1035 167.611 44.595C168.034 44.0866 168.525 43.6811 169.082 43.3784C169.638 43.0637 170.256 42.9063 170.934 42.9063C171.684 42.9063 172.283 43.1424 172.731 43.6145C173.191 44.0745 173.421 44.7887 173.421 45.7572C173.421 46.2898 173.349 46.8709 173.203 47.5004C173.058 48.1298 172.84 48.7533 172.55 49.3707C172.259 49.988 171.902 50.551 171.478 51.0594C171.067 51.5678 170.583 51.9794 170.026 52.2942C169.469 52.5968 168.852 52.7481 168.174 52.7481C167.423 52.7481 166.818 52.5121 166.358 52.0399C165.91 51.5678 165.686 50.8536 165.686 49.8973ZM180.871 51.3318C180.823 51.5981 180.823 51.7918 180.871 51.9128C180.92 52.0218 181.041 52.0763 181.235 52.0763C181.477 52.0763 181.701 51.9431 181.906 51.6768C182.124 51.3983 182.348 50.9141 182.578 50.2241L182.796 49.5522H183.141L182.705 50.8778C182.548 51.362 182.354 51.7434 182.124 52.0218C181.906 52.2881 181.658 52.4757 181.38 52.5847C181.113 52.6936 180.835 52.7481 180.545 52.7481C180.157 52.7481 179.842 52.615 179.6 52.3486C179.358 52.0702 179.304 51.6283 179.437 51.0231L179.691 49.8246C179.836 49.1225 179.758 48.608 179.455 48.2812C179.164 47.9422 178.511 47.7364 177.494 47.6638V47.5911C177.954 47.5548 178.42 47.5548 178.892 47.5911C179.376 47.6275 179.806 47.7304 180.181 47.8998C180.557 48.0572 180.841 48.2993 181.035 48.6262C181.228 48.9409 181.271 49.3586 181.162 49.8791L180.871 51.3318ZM182.469 43.2876C182.324 43.2876 182.197 43.3118 182.088 43.3603C181.991 43.4087 181.894 43.4692 181.797 43.5418C181.567 43.7234 181.368 43.9837 181.198 44.3226C181.041 44.6616 180.877 45.0248 180.708 45.4121C180.551 45.7874 180.351 46.1506 180.109 46.5016C179.879 46.8406 179.57 47.119 179.183 47.3369C178.807 47.5548 178.317 47.6577 177.712 47.6456L177.53 47.6638L177.567 47.464C178.16 47.4277 178.638 47.2946 179.001 47.0646C179.364 46.8346 179.655 46.5501 179.873 46.2111C180.091 45.8722 180.272 45.5211 180.417 45.1579C180.575 44.7827 180.732 44.4316 180.89 44.1048C181.059 43.7779 181.271 43.5176 181.525 43.3239C181.743 43.1545 181.937 43.0455 182.106 42.9971C182.288 42.9366 182.457 42.9063 182.615 42.9063C183.038 42.9063 183.329 43.0153 183.486 43.2331C183.644 43.4389 183.71 43.6871 183.686 43.9776C183.674 44.1229 183.631 44.2863 183.559 44.4679C183.486 44.6495 183.371 44.8069 183.214 44.94C183.069 45.0732 182.875 45.1398 182.633 45.1398C182.366 45.1398 182.179 45.0611 182.07 44.9037C181.961 44.7342 181.912 44.5527 181.925 44.359C181.937 44.1895 181.997 44.0079 182.106 43.8142C182.215 43.6084 182.348 43.4329 182.506 43.2876C182.494 43.2876 182.487 43.2876 182.487 43.2876C182.487 43.2876 182.481 43.2876 182.469 43.2876ZM176.15 52.4939H174.589L177.022 44.704C177.07 44.5829 177.113 44.4377 177.149 44.2682C177.185 44.0866 177.185 43.9292 177.149 43.7961C177.113 43.6508 176.998 43.5782 176.804 43.5782C176.538 43.5782 176.289 43.7174 176.059 43.9958C175.829 44.2742 175.587 44.7524 175.333 45.4303L175.079 46.1022H174.734L175.224 44.7766C175.418 44.2682 175.642 43.8808 175.896 43.6145C176.162 43.3482 176.435 43.1666 176.713 43.0697C176.992 42.9608 177.252 42.9063 177.494 42.9063C177.857 42.9063 178.111 42.991 178.257 43.1605C178.402 43.3179 178.481 43.5237 178.493 43.7779C178.505 44.0321 178.474 44.3105 178.402 44.6132C178.329 44.9037 178.257 45.1821 178.184 45.4485L176.15 52.4939Z" fill="black"/>
</svg>
